<?xml version="1.0" encoding="utf-8"?>
<!-- Generator: Adobe Illustrator 22.0.1, SVG Export Plug-In . SVG Version: 6.00 Build 0)  -->
<svg version="1.1" id="Layer_1" xmlns="http://www.w3.org/2000/svg" xmlns:xlink="http://www.w3.org/1999/xlink" x="0px" y="0px"
	 viewBox="0 0 260 260" style="enable-background:new 0 0 260 260;" xml:space="preserve">
<style type="text/css">
	.st0{fill:#B72C5B;}
	.st1{fill:#FFFFFF;}
	.st2{fill:#B72C5C;}
	.st3{fill:url(#SVGID_1_);}
	.st4{fill:none;}
</style>
<path class="st0" d="M130,260L130,260C58.2,260,0,201.8,0,130v0C0,58.2,58.2,0,130,0h0c71.8,0,130,58.2,130,130v0
	C260,201.8,201.8,260,130,260z"/>
<g id="Layer_2_1_">
	<g id="Layer_1-2">
		<path class="st1" d="M164.1,181.3l-9.3-22.3h-51.3l-9.3,22.3H73.3L119.3,76h20.9l45.5,105.3L164.1,181.3z"/>
		<rect x="158.6" y="133.7" class="st2" width="28.1" height="48.3"/>
		<rect x="150.7" y="75.3" class="st2" width="19.9" height="66.6"/>
		<path class="st1" d="M171.3,84.9c0,5.7-4.2,10.2-10.7,10.2c-5.4,0.3-10-3.9-10.3-9.4c0-0.3,0-0.5,0-0.8
			c-0.1-5.9,4.1-10.4,10.4-10.4C167.2,74.5,171.2,78.9,171.3,84.9z"/>
		<rect x="150.7" y="98.8" class="st1" width="20.2" height="82.5"/>
		
			<linearGradient id="SVGID_1_" gradientUnits="userSpaceOnUse" x1="132.1955" y1="155.8075" x2="151.7788" y2="155.5586" gradientTransform="matrix(1 0 0 -1 0 262.7)">
			<stop  offset="5.000000e-02" style="stop-color:#FFFFFF;stop-opacity:0"/>
			<stop  offset="0.19" style="stop-color:#FFFFFF;stop-opacity:0"/>
			<stop  offset="1" style="stop-color:#333333"/>
		</linearGradient>
		<path class="st3" d="M109.7,72c4.8-0.2,31.3,59.7,34,64.4c2.1,3.7,0.4,4.3,7,5.4v-41.4l-4.7-10.8L140.2,76L109.7,72z"/>
		<path class="st4" d="M164.1,181.3l-9.3-22.3h-51.3l-9.3,22.3H73.3L119.3,76h20.9l45.5,105.3L164.1,181.3z"/>
		<path class="st4" d="M164.1,181.3l-9.3-22.3h-51.3l-9.3,22.3H73.3L119.3,76h20.9l45.5,105.4L164.1,181.3z"/>
		<polygon class="st2" points="108.9,141.8 150.8,141.8 130,95.8 		"/>
	</g>
</g>
</svg>
