<?xml version="1.0" encoding="utf-8"?>
<!-- Generator: Adobe Illustrator 22.0.1, SVG Export Plug-In . SVG Version: 6.00 Build 0)  -->
<svg version="1.1" id="Layer_1" xmlns="http://www.w3.org/2000/svg" xmlns:xlink="http://www.w3.org/1999/xlink" x="0px" y="0px"
	 viewBox="0 0 260 260" style="enable-background:new 0 0 260 260;" xml:space="preserve">
<style type="text/css">
	.st0{fill:#0092C9;}
	.st1{fill:#FFFFFF;}
	.st2{clip-path:url(#SVGID_2_);}
	.st3{fill:url(#SVGID_3_);}
</style>
<path class="st0" d="M130,260L130,260C58.2,260,0,201.8,0,130v0C0,58.2,58.2,0,130,0l0,0c71.8,0,130,58.2,130,130v0
	C260,201.8,201.8,260,130,260z"/>
<g id="Layer_2_1_">
	<g id="Layer_1-2">
		<path class="st1" d="M125.1,128.1c4.2-0.9,8-3,11.2-5.9V91.6h3c-1.5-2.2-3.4-4.1-5.6-5.6c-6.4-4.7-15.2-7-26.3-7H61.1v104.2h47.6
			c11.9,0,21.3-2.6,28.2-7.7c6.9-5.1,10.3-12.1,10.3-21.1c0-6.9-2-12.7-5.9-17.4C137.5,132.4,132.1,129.4,125.1,128.1z M81,96.2
			h25.3c5.1-0.1,9.2,1,12.1,3.1c2.9,2.2,4.6,5.6,4.4,9.2c0.2,3.7-1.5,7.2-4.4,9.5c-2.9,2.3-7,3.4-12.1,3.4H81V96.2z M121.2,162.3
			c-3.6,2.5-8.5,3.7-14.9,3.6H81v-27.5h25.3c6.4-0.1,11.3,1.1,14.9,3.5c3.4,2.2,5.5,6,5.4,10C126.7,156.1,124.7,160,121.2,162.3
			L121.2,162.3z"/>
		<g>
			<defs>
				<path id="SVGID_1_" d="M97.5,67.6v16.1H108c13.2,0,13.6,2.8,21.2,8.2c7.6,5.5,1.8-0.9,1.8,8.6c0,6.8,7.6,12.1,3.8,17
					c-4,4.9-9.6,8.4-15.8,9.7c8.2,1.5,14.6,5,19.3,10.5c4.6,5.5-10.3,12.3-10.3,20.5c0,10.5-19.4,18.8-27.5,24.8s23.1,9,9,9h-2.1
					v0.4h105.5V67.6H97.5z"/>
			</defs>
			<clipPath id="SVGID_2_">
				<use xlink:href="#SVGID_1_"  style="overflow:visible;"/>
			</clipPath>
			<g class="st2">
				<path class="st1" d="M179.9,85.8c8.1,4.2,14.8,10.6,19.4,18.5c4.7,8.2,7.1,17.4,7,26.9c0.2,9.4-2.3,18.7-7.1,26.8
					c-4.7,7.8-11.5,14.2-19.6,18.5c-8.8,4.6-18.5,6.9-28.4,6.7h-42.6V78.9h43.3C161.7,78.9,171.3,81.2,179.9,85.8z M169.5,161.6
					c5.1-3,9.2-7.3,12-12.6c5.8-11.2,5.8-24.5-0.1-35.6c-2.9-5.2-7.1-9.4-12.3-12.3c-5.3-3-11.4-4.5-17.5-4.4h-27.5V166h28.2
					C158.4,166.1,164.3,164.6,169.5,161.6z"/>
			</g>
		</g>
		<rect x="122.9" y="79" class="st1" width="14.9" height="58"/>
		
			<linearGradient id="SVGID_3_" gradientUnits="userSpaceOnUse" x1="88.66" y1="277.98" x2="122.66" y2="277.98" gradientTransform="matrix(1 0 0 -1 0 370.58)">
			<stop  offset="0" style="stop-color:#FFFFFF;stop-opacity:0"/>
			<stop  offset="1" style="stop-color:#333333"/>
		</linearGradient>
		<path class="st3" d="M106.3,96.2c5.1-0.1,9.2,1,12.1,3.1c2.2,1.6,3.7,4.1,4.2,6.8V79h-34v17.2H106.3z"/>
	</g>
</g>
</svg>
