<?xml version="1.0" encoding="utf-8"?>
<!-- Generator: Adobe Illustrator 22.0.1, SVG Export Plug-In . SVG Version: 6.00 Build 0)  -->
<svg version="1.1" id="Layer_1" xmlns="http://www.w3.org/2000/svg" xmlns:xlink="http://www.w3.org/1999/xlink" x="0px" y="0px"
	 viewBox="0 0 260 260" style="enable-background:new 0 0 260 260;" xml:space="preserve">
<style type="text/css">
	.st0{fill:#A187B5;}
	.st1{fill:#FFFFFF;}
	.st2{clip-path:url(#SVGID_2_);}
	.st3{fill:url(#SVGID_3_);}
</style>
<path class="st0" d="M130,260L130,260C58.2,260,0,201.8,0,130v0C0,58.2,58.2,0,130,0h0c71.8,0,130,58.2,130,130v0
	C260,201.8,201.8,260,130,260z"/>
<g id="Layer_2_1_">
	<g id="Layer_1-2">
		<path class="st1" d="M187.7,86.6c24,13.4,32.6,43.7,19.2,67.7c-0.2,0.3-0.3,0.6-0.5,0.8c-4.5,7.6-11,13.9-18.7,18.1
			c-16.4,8.9-36.2,8.9-52.7,0c-7.7-4.3-14.2-10.5-18.7-18.1c-14-23.3-6.4-53.6,16.9-67.5c0.6-0.4,1.2-0.7,1.8-1
			C151.5,77.9,171.2,77.9,187.7,86.6z M145.1,101.1c-15.9,9.3-21.3,29.6-12,45.5c2.9,5,7.1,9.2,12.1,12.1c5,2.9,10.7,4.5,16.5,4.4
			c5.7,0,11.3-1.5,16.3-4.4c5-2.9,9-7.1,11.9-12.1c2.9-5.1,4.4-10.9,4.4-16.8c0.1-5.9-1.4-11.7-4.4-16.8c-2.8-5-6.9-9.1-11.9-12
			c-4.9-2.9-10.5-4.4-16.3-4.4C155.9,96.7,150.1,98.2,145.1,101.1L145.1,101.1z"/>
		<g>
			<defs>
				<path id="SVGID_1_" d="M187.7,86.6c24,13.4,32.6,43.7,19.2,67.7c-0.2,0.3-0.3,0.6-0.5,0.8c-4.5,7.6-11,13.9-18.7,18.1
					c-16.4,8.9-36.2,8.9-52.7,0c-7.7-4.3-14.2-10.5-18.7-18.1c-14-23.3-6.4-53.6,16.9-67.5c0.6-0.4,1.2-0.7,1.8-1
					C151.5,77.9,171.2,77.9,187.7,86.6z M145.1,101.1c-15.9,9.3-21.3,29.6-12,45.5c2.9,5,7.1,9.2,12.1,12.1c5,2.9,10.7,4.5,16.5,4.4
					c5.7,0,11.3-1.5,16.3-4.4c5-2.9,9-7.1,11.9-12.1c2.9-5.1,4.4-10.9,4.4-16.8c0.1-5.9-1.4-11.7-4.4-16.8c-2.8-5-6.9-9.1-11.9-12
					c-4.9-2.9-10.5-4.4-16.3-4.4C155.9,96.7,150.1,98.2,145.1,101.1L145.1,101.1z"/>
			</defs>
			<clipPath id="SVGID_2_">
				<use xlink:href="#SVGID_1_"  style="overflow:visible;"/>
			</clipPath>
			<g class="st2">
				
					<linearGradient id="SVGID_3_" gradientUnits="userSpaceOnUse" x1="-3007.3489" y1="985.6182" x2="-2964.9314" y2="985.6182" gradientTransform="matrix(-0.9115 0.4112 0.4112 0.9115 -2977.6384 415.477)">
					<stop  offset="0.19" style="stop-color:#FFFFFF;stop-opacity:0"/>
					<stop  offset="1" style="stop-color:#333333"/>
				</linearGradient>
				<path class="st3" d="M144.1,81c-5.2,2.4-8.4,6.3-12.4,5.5c-3-0.6-5.7-2.4-7.3-5l12.4,27.5l37.9-19l-23.6-21.6L144.1,81z"/>
				<path class="st1" d="M123.4,86.6c0,0,10.5,4.4,19.1,17.9l-4.8,7l-5.8-2l-8.3-13l-0.4-5.5L123.4,86.6z"/>
			</g>
		</g>
		<path class="st1" d="M109,163.3c-0.4-0.8-0.9-1.5-1.3-2.3c-3,0.9-6.1,1.4-9.3,1.4c-5.8,0.1-11.5-1.4-16.6-4.4
			c-4.9-2.9-9-7-11.8-12c-5.7-10.3-5.7-22.9,0-33.2c2.8-5,6.9-9.1,11.8-11.9c9.5-5.4,21-5.7,30.8-1c4.7,2.2,8.8,5.4,12.2,9.3
			l10.8-13.7c-4.8-5-10.7-8.9-17.1-11.5c-15.1-6.3-32.2-5.4-46.5,2.4c-15.8,8.6-25.5,25.2-25.4,43.2c-0.1,8.9,2.2,17.7,6.6,25.4
			c4.4,7.6,10.7,13.8,18.3,18.1c7.8,4.5,16.7,6.8,25.7,6.7c7.1,0,14.1-1.6,20.6-4.6c0.2-0.1,0.5-0.2,0.7-0.3
			C114.9,171.7,111.6,167.7,109,163.3z"/>
	</g>
</g>
</svg>
