<?xml version="1.0" encoding="utf-8"?>
<!-- Generator: Adobe Illustrator 22.0.1, SVG Export Plug-In . SVG Version: 6.00 Build 0)  -->
<svg version="1.1" id="Layer_1" xmlns="http://www.w3.org/2000/svg" xmlns:xlink="http://www.w3.org/1999/xlink" x="0px" y="0px"
	 viewBox="0 0 260 260" style="enable-background:new 0 0 260 260;" xml:space="preserve">
<style type="text/css">
	.st0{fill:#23AD5E;}
	.st1{fill:#FFFFFF;}
	.st2{clip-path:url(#SVGID_2_);}
	.st3{fill:url(#SVGID_3_);}
</style>
<path class="st0" d="M130,260L130,260C58.2,260,0,201.8,0,130l0,0C0,58.2,58.2,0,130,0h0c71.8,0,130,58.2,130,130v0
	C260,201.8,201.8,260,130,260z"/>
<g id="Layer_2_1_">
	<g id="Layer_1-2">
		<polygon class="st1" points="141.2,77.6 119.3,77.6 93,95.5 146.5,95.5 146.5,178.8 166.3,178.8 166.3,95.5 197,95.5 197,77.6 		
			"/>
		<path class="st1" d="M134.7,160.2l-1.3,0.6c-4.7,2.1-9.8,3.2-15,3.2c-6.2,0.1-12.3-1.5-17.7-4.6c-5.3-3-9.6-7.3-12.7-12.5
			c-6.1-10.8-6.1-24,0-34.8c3-5.2,7.4-9.5,12.7-12.5c5.1-2.9,10.8-4,16.9-4.1V85.3h29.3c-17.5-10-38.9-10.3-56.7-0.9
			c-8.2,4.4-15,10.9-19.9,18.8c-4.9,8-7.4,17.2-7.3,26.5c-0.1,9.4,2.4,18.6,7.1,26.6c4.7,8,11.5,14.5,19.6,19
			c8.4,4.7,17.9,7.1,27.5,7c5.9,0,11.8-1,17.3-2.9V160.2z"/>
		<g>
			<defs>
				<polygon id="SVGID_1_" points="119.6,77.6 146.5,77.6 146.5,95.5 119.4,95.6 				"/>
			</defs>
			<clipPath id="SVGID_2_">
				<use xlink:href="#SVGID_1_"  style="overflow:visible;"/>
			</clipPath>
			<g class="st2">
				
					<linearGradient id="SVGID_3_" gradientUnits="userSpaceOnUse" x1="-470.5766" y1="-5981.0054" x2="-433.8681" y2="-5981.0054" gradientTransform="matrix(1 -2.094394e-03 -2.094394e-03 -1 568.8308 -5893.3413)">
					<stop  offset="0.19" style="stop-color:#FFFFFF;stop-opacity:0"/>
					<stop  offset="1" style="stop-color:#333333"/>
				</linearGradient>
				<path class="st3" d="M131,97.8c4.9-0.1,7.9-1.6,10.7,0.4c2.2,1.6,5.9,0.2,6.3,2.9L148,75.1l-36.7,1.6l11,25.5L131,97.8z"/>
			</g>
		</g>
	</g>
</g>
</svg>
