<?xml version="1.0" encoding="utf-8"?>
<!-- Generator: Adobe Illustrator 22.0.1, SVG Export Plug-In . SVG Version: 6.00 Build 0)  -->
<svg version="1.1" id="Layer_1" xmlns="http://www.w3.org/2000/svg" xmlns:xlink="http://www.w3.org/1999/xlink" x="0px" y="0px"
	 viewBox="0 0 260 260" style="enable-background:new 0 0 260 260;" xml:space="preserve">
<style type="text/css">
	.st0{fill:#A0827D;}
	.st1{fill:#FFFFFF;}
	.st2{clip-path:url(#SVGID_2_);}
	.st3{fill:url(#SVGID_3_);}
</style>
<path class="st0" d="M130,260L130,260C58.2,260,0,201.8,0,130v0C0,58.2,58.2,0,130,0h0c71.8,0,130,58.2,130,130v0
	C260,201.8,201.8,260,130,260z"/>
<g id="Layer_2_1_">
	<g id="Layer_1-2">
		<path class="st1" d="M190.4,84.9L163,157.4l-18.8-50.5l0,0c-1.8-5-4.6-9.7-8.1-13.7c-7.8-8.8-19.4-13.3-34.7-13.5l0,0l0,0h-0.8
			c-9.1-0.1-18,2-26,6.4c-7.5,4.1-13.7,10.3-17.8,17.8c-4.4,8.1-6.5,17.1-6.4,26.2c0,9.9,2.1,18.6,6.3,26.1
			c4.1,7.5,10.3,13.6,17.8,17.6c7.7,4.2,16.6,6.3,26.7,6.3c8.1,0.1,16.1-1.4,23.6-4.4c2.3-1,4.5-2.1,6.6-3.3l-7.1-16v-0.1
			c-2,1.4-4.2,2.6-6.5,3.5c-4.6,1.9-9.5,2.9-14.5,2.9c-8.4,0.1-16.5-2.7-23-7.9c-5-4-8.3-9.5-9.9-16.5H137l15.7,40h19.6l37.4-93.5
			H190.4z"/>
		<path class="st0" d="M130.4,122.2c-3-7.2-5.9-14.2-10.2-17.8c-7-5.8-15-6.1-21.5-6.1c-9,0-14,2.1-19.5,6.4s-8.6,10.1-9.9,17.5
			H130.4z"/>
		<g>
			<defs>
				<polygon id="SVGID_1_" points="111.2,122.2 130.4,122.2 136.9,138.3 111.9,138.3 				"/>
			</defs>
			<clipPath id="SVGID_2_">
				<use xlink:href="#SVGID_1_"  style="overflow:visible;"/>
			</clipPath>
			<g class="st2">
				
					<linearGradient id="SVGID_3_" gradientUnits="userSpaceOnUse" x1="-468.4676" y1="-6121.0156" x2="-434.6649" y2="-6121.0156" gradientTransform="matrix(1 -2.094394e-03 -2.094394e-03 -1 563.9244 -5990.6636)">
					<stop  offset="0.19" style="stop-color:#FFFFFF;stop-opacity:0"/>
					<stop  offset="1" style="stop-color:#333333"/>
				</linearGradient>
				<path class="st3" d="M127,139.7c4.6-0.1,7.2-1.5,9.8,0.4c2,1.5,5.4,0.2,5.8,2.7l-0.1-24l-33.8,1.5l10.1,23.4L127,139.7z"/>
			</g>
		</g>
	</g>
</g>
</svg>
