<?xml version="1.0" encoding="utf-8"?>
<!-- Generator: Adobe Illustrator 22.0.1, SVG Export Plug-In . SVG Version: 6.00 Build 0)  -->
<svg version="1.1" id="Layer_1" xmlns="http://www.w3.org/2000/svg" xmlns:xlink="http://www.w3.org/1999/xlink" x="0px" y="0px"
	 viewBox="0 0 260 260" style="enable-background:new 0 0 260 260;" xml:space="preserve">
<style type="text/css">
	.st0{fill:#603E8E;}
	.st1{fill:#FFFFFF;}
	.st2{clip-path:url(#SVGID_2_);}
	.st3{fill:url(#SVGID_3_);}
	.st4{clip-path:url(#SVGID_5_);}
	.st5{fill:url(#SVGID_6_);}
</style>
<path class="st0" d="M130,260.2L130,260.2c-71.8,0-130-58.2-130-130v0c0-71.8,58.2-130,130-130h0c71.8,0,130,58.2,130,130v0
	C260,202,201.8,260.2,130,260.2z"/>
<g id="Layer_2_2_">
	<g id="Layer_1-2_1_">
		<path class="st1" d="M190.7,151.1c-2,2-4.2,3.8-6.6,5.4c-6.6,4.6-14.5,7-22.5,6.9c-7.4,0-12.1-2-17.9-5.3l-0.6-0.3l-0.8-0.5
			l-0.4-0.3c-0.4-0.3-0.8-0.6-1.2-0.8l-0.2-0.1c-0.4-0.3-0.7-0.5-1.1-0.8l-0.3-0.2c-0.4-0.3-0.7-0.6-1.1-0.9c-3.2-2.7-5.8-6-7.8-9.7
			c-0.4,0.8-0.8,1.7-1.2,2.5c-2.6,4.8-6.5,8.8-11.3,11.5c-4.8,2.8-12.3,4.1-18.3,4.1H77V97.4h21.8c6.1,0,14,1.4,19,4.1
			c4.9,2.7,8.9,6.8,11.6,11.7c0.4,0.8,0.9,1.6,1.2,2.5c2-3.8,4.7-7.2,8-10c0.3-0.2,0.6-0.5,0.9-0.8l0.3-0.3c0.3-0.3,0.7-0.5,1-0.8
			l0.2-0.2c0.4-0.3,0.8-0.6,1.2-0.8l0.4-0.3c0.3-0.2,0.5-0.3,0.8-0.5l0.5-0.3c5.8-3.4,10.2-5.3,17.6-5.3c0.5,0,0.9,0,1.4,0h1
			c5,0,9.9,1.2,14.4,3.4c4.7,2.2,8.9,5.4,12.3,9.4l10.9-13.8c-4.9-5-10.8-9-17.3-11.7c-15.2-6.4-32.5-5.5-47,2.4
			c-2.3,1.3-4.5,2.7-6.5,4.3c-1.7-1.2-3.5-2.4-5.4-3.4c-8.1-4.3-17.2-6.4-26.4-6.3H58.2v98.3h40.2c9.3,0.2,18.6-2,26.8-6.3
			c1.9-1,3.7-2.1,5.4-3.4c2,1.6,4.2,3.1,6.4,4.4c7.9,4.5,16.9,6.8,26,6.7c7.2,0,14.3-1.6,20.8-4.6c6.7-3,12.8-7.2,18-12.4
			L190.7,151.1z"/>
		<g>
			<defs>
				<path id="SVGID_1_" d="M130.6,115.6c2-3.8,4.7-7.2,8-10c0.3-0.2,0.6-0.5,0.9-0.8l0.3-0.3c0.3-0.3,0.7-0.5,1-0.8l0.2-0.2
					c0.4-0.3,0.8-0.6,1.2-0.8l0.4-0.3c0.3-0.2,0.5-0.3,0.8-0.5l0.5-0.3c5.8-3.4,10.2-5.3,17.6-5.3c0.5,0,0.9,0,1.4,0h1
					c5,0,9.9,1.2,14.4,3.4c4.7,2.2,8.9,5.4,12.3,9.4l10.9-13.8c-4.9-5-10.8-9-17.3-11.7c-15.2-6.4-32.5-5.5-47,2.4
					c-2.3,1.3-4.5,2.7-6.5,4.3l-0.3-0.2L130.6,115.6z"/>
			</defs>
			<clipPath id="SVGID_2_">
				<use xlink:href="#SVGID_1_"  style="overflow:visible;"/>
			</clipPath>
			<g class="st2">
				
					<linearGradient id="SVGID_3_" gradientUnits="userSpaceOnUse" x1="-10206.3408" y1="-1145.7335" x2="-10167.5342" y2="-1145.7335" gradientTransform="matrix(-0.9115 0.4112 0.4112 0.9115 -8665.1445 5318.7251)">
					<stop  offset="0.19" style="stop-color:#FFFFFF;stop-opacity:0"/>
					<stop  offset="1" style="stop-color:#333333"/>
				</linearGradient>
				<path class="st3" d="M144.6,80.9c-4.7,2.2-7.7,5.8-11.3,5c-2.8-0.6-5.2-2.2-6.7-4.6l11.4,25.2L172.6,89L151,69.2L144.6,80.9z"/>
				<path class="st1" d="M121.1,85c0.8,0.3,13.7,4.8,22.5,20l-6.6,4.7l-16.5-8.5l-3-12.6L121.1,85z"/>
			</g>
		</g>
		<g>
			<defs>
				<path id="SVGID_4_" d="M190.7,151.1c-2,2-4.2,3.8-6.6,5.4c-6.6,4.6-14.5,7-22.5,6.9c-7.4,0-12.1-2-17.9-5.3l-0.6-0.3l-0.8-0.5
					l-0.4-0.3c-0.4-0.3-0.8-0.6-1.2-0.8l-0.2-0.1c-0.4-0.3-0.7-0.5-1.1-0.8l-0.3-0.2c-0.4-0.3-0.7-0.6-1.1-0.9
					c-3.1-2.7-5.7-5.9-7.7-9.6v25l0.2-0.1c2,1.6,4.2,3.1,6.4,4.4c7.9,4.5,16.9,6.8,26,6.7c7.2,0,14.3-1.6,20.8-4.6
					c6.7-3,12.8-7.2,18-12.4L190.7,151.1z"/>
			</defs>
			<clipPath id="SVGID_5_">
				<use xlink:href="#SVGID_4_"  style="overflow:visible;"/>
			</clipPath>
			<g class="st4">
				
					<linearGradient id="SVGID_6_" gradientUnits="userSpaceOnUse" x1="-10543.7451" y1="-1905.8712" x2="-10504.9355" y2="-1905.8712" gradientTransform="matrix(-0.91 -0.41 0.41 -0.91 -8664.8438 -5884.0186)">
					<stop  offset="0.19" style="stop-color:#FFFFFF;stop-opacity:0"/>
					<stop  offset="1" style="stop-color:#333333"/>
				</linearGradient>
				<path class="st5" d="M143.3,177.8c-4.7-2.2-7.7-5.8-11.3-5c-2.8,0.6-5.2,2.2-6.7,4.6l11.4-25.2l34.7,17.4l-21.6,19.8
					L143.3,177.8z"/>
				<path class="st1" d="M121,174.7c0.8-0.3,13.7-4.8,22.5-20l-6.6-4.7l-16.5,8.5l-3,12.6L121,174.7z"/>
			</g>
		</g>
	</g>
</g>
</svg>
