<?xml version="1.0" encoding="utf-8"?>
<!-- Generator: Adobe Illustrator 22.0.1, SVG Export Plug-In . SVG Version: 6.00 Build 0)  -->
<svg version="1.1" id="Layer_1" xmlns="http://www.w3.org/2000/svg" xmlns:xlink="http://www.w3.org/1999/xlink" x="0px" y="0px"
	 viewBox="0 0 260 260" style="enable-background:new 0 0 260 260;" xml:space="preserve">
<style type="text/css">
	.st0{fill:#24408F;}
	.st1{fill:#FFFFFF;}
	.st2{clip-path:url(#SVGID_2_);}
	.st3{clip-path:url(#SVGID_4_);}
	.st4{fill:url(#SVGID_5_);}
	.st5{clip-path:url(#SVGID_7_);}
	.st6{fill:url(#SVGID_8_);}
</style>
<path class="st0" d="M130,260L130,260C58.2,260,0,201.8,0,130v0C0,58.2,58.2,0,130,0h0c71.8,0,130,58.2,130,130v0
	C260,201.8,201.8,260,130,260z"/>
<title>FOO</title>
<g>
	<g>
		<g>
			<path class="st1" d="M144.8,74.5h-0.7v-0.1H59v109.2h21.6v-42.7h8.9c4.6,26.9,26.6,44.7,55.2,44.7c32.3,0,56.1-22.6,56.1-55.5
				C201,97.2,177.1,74.5,144.8,74.5z M144.8,165.7c-19.7,0-34.7-13.8-34.7-35.5c0-3.2,0.3-6.4,1-9.5l-17.8,3.5
				c-0.1,0.5-0.3,1-0.6,1.4v-4.9h-12v-26l0,0v-0.2h19.8l0,0h43c0.4,0,0.9,0,1.3,0c19.7,0,34.7,13.8,34.7,35.6
				S164.6,165.7,144.8,165.7z"/>
			<g id="Layer_2_1_">
				<defs>
					<path id="SVGID_1_" d="M144.8,74.5c-18.5,0-34.3,7.5-44.3,20.1h43.1c0.4,0,0.8,0,1.3,0c19.7,0,34.7,13.8,34.7,35.6
						s-15,35.5-34.7,35.5s-34.7-13.8-34.7-35.5c0-3.2,0.3-6.4,1-9.5H89.4c-0.5,3.1-0.7,6.3-0.7,9.5c0,32.9,23.9,55.5,56.1,55.5
						s56.1-22.6,56.1-55.5C201,97.2,177.1,74.5,144.8,74.5z"/>
				</defs>
				<clipPath id="SVGID_2_">
					<use xlink:href="#SVGID_1_"  style="overflow:visible;"/>
				</clipPath>
				<g id="Layer_1-2" class="st2">
					<g>
						<defs>
							<polygon id="SVGID_3_" points="95.1,177.2 88.9,139.4 155.8,162.7 169,196.2 							"/>
						</defs>
						<clipPath id="SVGID_4_">
							<use xlink:href="#SVGID_3_"  style="overflow:visible;"/>
						</clipPath>
						<g class="st3">
							
								<linearGradient id="SVGID_5_" gradientUnits="userSpaceOnUse" x1="-15435.6221" y1="5552.6221" x2="-15352.5459" y2="5552.6221" gradientTransform="matrix(-0.6694 -0.7429 -0.7429 0.6694 -6057.5103 -14987.5244)">
								<stop  offset="0.19" style="stop-color:#FFFFFF;stop-opacity:0"/>
								<stop  offset="1" style="stop-color:#333333"/>
							</linearGradient>
							<path class="st4" d="M154.1,162.4c-4.2-4.5-18.3,4.3-18.7-0.1c-0.3-3.4-36.5-30.2-34.4-32.9l-26.2,23L135,210l14.5-31.4
								L154.1,162.4z"/>
						</g>
					</g>
					<g>
						<defs>
							<path id="SVGID_6_" d="M144.8,74.5h-0.7v-0.1H59v109.2h21.6v-42.7h8.9c4.6,26.9,26.6,44.7,55.2,44.7
								c32.3,0,56.1-22.6,56.1-55.5C201,97.2,177.1,74.5,144.8,74.5z M144.8,165.7c-19.7,0-34.7-13.8-34.7-35.5c0-3.2,0.3-6.4,1-9.5
								l-17.8,3.5c-0.1,0.5-0.3,1-0.6,1.4v-4.9h-12v-26l0,0v-0.2h19.8l0,0h43c0.4,0,0.9,0,1.3,0c19.7,0,34.7,13.8,34.7,35.6
								S164.6,165.7,144.8,165.7z"/>
						</defs>
						<clipPath id="SVGID_7_">
							<use xlink:href="#SVGID_6_"  style="overflow:visible;"/>
						</clipPath>
						<g class="st5">
							
								<linearGradient id="SVGID_8_" gradientUnits="userSpaceOnUse" x1="-16054.168" y1="5141.4668" x2="-16012.9951" y2="5141.4668" gradientTransform="matrix(-1 2.094308e-03 2.094308e-03 1 -15892.6602 -5025.6182)">
								<stop  offset="0.19" style="stop-color:#FFFFFF;stop-opacity:0"/>
								<stop  offset="1" style="stop-color:#333333"/>
							</linearGradient>
							<path class="st6" d="M150.5,71.9c-5.5,0.1-8.8,1.8-12-0.5c-2.5-1.8-6.6-0.2-7.1-3.2l0.1,29.3l41.1-1.8l-12.3-28.6L150.5,71.9
								z"/>
						</g>
					</g>
					<path class="st0" d="M106.5,117.5c-3.1,3.3-4.6,7.6-4.6,12.8c0,5.3,1.5,9.5,4.6,12.8c3.1,3.3,7.5,5.1,12.1,4.9
						c4.5,0.1,8.8-1.7,11.9-4.9c3.1-3.3,4.6-7.6,4.6-12.8s-1.5-9.5-4.6-12.8c-3-3.3-7.4-5.1-11.9-5
						C114,112.3,109.6,114.1,106.5,117.5z"/>
				</g>
			</g>
		</g>
	</g>
	<path class="st1" d="M134.7,104c4.5,2.4,8.3,6,10.9,10.5c2.7,4.7,4,10.1,3.9,15.5c0.1,5.5-1.2,10.9-3.9,15.7
		c-2.5,4.5-6.3,8.1-10.9,10.5c-5,2.6-10.5,3.8-16.1,3.7c-5.6,0.1-11.2-1.2-16.2-3.7c-4.6-2.4-8.4-6-10.9-10.5
		c-2.7-4.8-4-10.2-3.9-15.7c-0.1-5.4,1.2-10.8,3.9-15.5c2.6-4.5,6.3-8.1,10.9-10.5c5-2.6,10.6-3.8,16.2-3.7
		C124.2,100.2,129.7,101.5,134.7,104z M106.5,117.5c-3.1,3.3-4.6,7.6-4.6,12.8c0,5.3,1.5,9.5,4.6,12.8c3.1,3.3,7.5,5.1,12.1,4.9
		c4.5,0.1,8.8-1.7,11.9-4.9c3.1-3.3,4.6-7.6,4.6-12.8s-1.5-9.5-4.6-12.8c-3-3.3-7.4-5.1-11.9-5C114,112.3,109.6,114.1,106.5,117.5z"
		/>
	<path class="st0" d="M131.4,75.9v-1.7h13.4c0,0.1,0,0.2,0,0.3c-2.7,0-5.2,0.1-8.3,0.5C134.7,75.3,133,75.6,131.4,75.9z"/>
</g>
</svg>
