<?xml version="1.0" encoding="utf-8"?>
<!-- Generator: Adobe Illustrator 22.0.1, SVG Export Plug-In . SVG Version: 6.00 Build 0)  -->
<svg version="1.1" id="Layer_1" xmlns="http://www.w3.org/2000/svg" xmlns:xlink="http://www.w3.org/1999/xlink" x="0px" y="0px"
	 viewBox="0 0 260 260" style="enable-background:new 0 0 260 260;" xml:space="preserve">
<style type="text/css">
	.st0{fill:#DC4F3E;}
	.st1{fill:#FFFFFF;}
	.st2{clip-path:url(#SVGID_2_);}
	.st3{fill:url(#SVGID_3_);}
	.st4{fill:url(#SVGID_4_);}
</style>
<path class="st0" d="M130,260L130,260C58.2,260,0,201.8,0,130v0C0,58.2,58.2,0,130,0h0c71.8,0,130,58.2,130,130v0
	C260,201.8,201.8,260,130,260z"/>
<g id="Layer_2_1_">
	<g id="Layer_1-2">
		<path class="st1" d="M141.6,170.6L141.6,170.6c6.9-5.5,12.8-12.2,17.5-19.7v-27h-2l-4.5,18.6h-6.3l-7.3,5.6
			c-3.2,5.3-11.2,15.2-26.3,15.2c-19,0-32.2-13-32.2-33.3c0-20,12.1-33.2,30.3-33.2c15.2,0,23.3,8.6,26.8,15l19.2-5.4
			c-6.3-15.8-23-28.4-45.2-28.4c-29,0-50.7,21.1-50.7,51.9c0,30.3,21.4,50.7,47.6,52C112.3,181.8,126.3,182.6,141.6,170.6z"/>
		<g>
			<defs>
				<path id="SVGID_1_" d="M141.7,180.1c-0.1-3.2,0.2-6.4,0.8-9.6h-1c-5.2,5.3-16.4,11.4-30.4,11.4C83.9,182,61,161.3,61,129.9
					C61,99,82.6,78,111.6,78c22.2,0,38.8,12.6,45.1,28.3l-19.2,5.4c-3.5-6.4-11.6-15-26.8-15c-18.1,0-30.3,13.2-30.3,33.2
					c0,20.3,13.3,33.3,32.2,33.3c15.1,0,23.1-9.9,26.3-15.2l7.3-5.5h6.3l4.5-18.6h2v56.2L141.7,180.1z"/>
			</defs>
			<clipPath id="SVGID_2_">
				<use xlink:href="#SVGID_1_"  style="overflow:visible;"/>
			</clipPath>
			<g class="st2">
				
					<linearGradient id="SVGID_3_" gradientUnits="userSpaceOnUse" x1="116.9023" y1="91.3804" x2="138.2656" y2="100.9795" gradientTransform="matrix(1 0 0 -1 0 261.71)">
					<stop  offset="0" style="stop-color:#FFFFFF;stop-opacity:0"/>
					<stop  offset="1" style="stop-color:#333333"/>
				</linearGradient>
				<path class="st3" d="M141.9,170.3l-8.9-16.4l-23.9,6.9l0.8,21.2C115.1,181.9,127.9,181.4,141.9,170.3z"/>
				
					<linearGradient id="SVGID_4_" gradientUnits="userSpaceOnUse" x1="110.0641" y1="74.4075" x2="112.0184" y2="74.4075" gradientTransform="matrix(1 0 0 -1 0 261.71)">
					<stop  offset="0" style="stop-color:#FFFFFF"/>
					<stop  offset="1" style="stop-color:#B3B3B3"/>
				</linearGradient>
				<path class="st4" d="M110.8,187l-0.8-0.2v1.1l1.9-0.9H110.8z"/>
			</g>
		</g>
		<polygon class="st1" points="139.4,129.6 137.4,126 120.7,130.8 135.8,158.8 146.4,141.9 		"/>
		<path class="st1" d="M179.3,80l-27.5,50.2l0,0l-12.1,22.3l3.8,7h9.2c2.8-3.4,5.4-7.1,7.7-10.9l0.1-0.2l8.5-15.6
			c6.1-11.2,10.5-19.7,10.6-19.9h0.3c0,0.1-0.3,14.9-0.3,35.8v31.3h19.5V80H179.3z"/>
	</g>
</g>
</svg>
