<?xml version="1.0" encoding="utf-8"?>
<!-- Generator: Adobe Illustrator 22.0.1, SVG Export Plug-In . SVG Version: 6.00 Build 0)  -->
<svg version="1.1" id="Layer_1" xmlns="http://www.w3.org/2000/svg" xmlns:xlink="http://www.w3.org/1999/xlink" x="0px" y="0px"
	 viewBox="0 0 260 260" style="enable-background:new 0 0 260 260;" xml:space="preserve">
<style type="text/css">
	.st0{fill:#009A8C;}
	.st1{fill:#FFFFFF;}
	.st2{clip-path:url(#SVGID_2_);}
	.st3{fill:url(#SVGID_3_);}
	.st4{fill:url(#SVGID_4_);}
</style>
<path class="st0" d="M130,260L130,260C58.2,260,0,201.8,0,130v0C0,58.2,58.2,0,130,0h0c71.8,0,130,58.2,130,130v0
	C260,201.8,201.8,260,130,260z"/>
<g id="Layer_2_1_">
	<g id="Layer_1-2">
		<path class="st1" d="M148.9,87.2c24.4,13.6,33.1,44.4,19.5,68.8c-0.2,0.3-0.3,0.6-0.5,0.9c-4.6,7.7-11.1,14.1-19,18.4
			c-8.2,4.6-17.4,6.9-26.8,6.8c-9.4,0.1-18.6-2.2-26.7-6.8c-7.9-4.3-14.4-10.7-19-18.4c-14.2-23.7-6.5-54.4,17.2-68.6
			c0.6-0.4,1.2-0.7,1.8-1c8.2-4.5,17.4-6.7,26.7-6.6C131.5,80.4,140.7,82.7,148.9,87.2z M105.7,101.9c-16.1,9.4-21.6,30.1-12.2,46.2
			c0,0,0,0,0,0c3,5.1,7.2,9.3,12.3,12.3c5.1,3,10.8,4.6,16.7,4.5c5.8,0,11.5-1.5,16.5-4.5c5-3,9.2-7.2,12.1-12.3
			c3-5.2,4.5-11.1,4.4-17.1c0.1-6-1.5-11.8-4.4-17c-2.9-5-7-9.2-12.1-12.1c-5-2.9-10.7-4.5-16.5-4.4
			C116.6,97.4,110.8,98.9,105.7,101.9z"/>
		<rect x="63.3" y="116.7" class="st0" width="8.5" height="30.6"/>
		<rect x="173.6" y="116.7" class="st0" width="8.5" height="30.6"/>
		<g>
			<defs>
				<path id="SVGID_1_" d="M148.9,87.2c24.4,13.6,33.1,44.4,19.5,68.8c-0.2,0.3-0.3,0.6-0.5,0.9c-4.6,7.7-11.1,14.1-19,18.4
					c-8.2,4.6-17.4,6.9-26.8,6.8c-9.4,0.1-18.6-2.2-26.7-6.8c-7.9-4.3-14.4-10.7-19-18.4c-14.2-23.7-6.5-54.4,17.2-68.6
					c0.6-0.4,1.2-0.7,1.8-1c8.2-4.5,17.4-6.7,26.7-6.6C131.5,80.4,140.7,82.7,148.9,87.2z M105.7,101.9
					c-16.1,9.4-21.6,30.1-12.2,46.2c0,0,0,0,0,0c3,5.1,7.2,9.3,12.3,12.3c5.1,3,10.8,4.6,16.7,4.5c5.8,0,11.5-1.5,16.5-4.5
					c5-3,9.2-7.2,12.1-12.3c3-5.2,4.5-11.1,4.4-17.1c0.1-6-1.5-11.8-4.4-17c-2.9-5-7-9.2-12.1-12.1c-5-2.9-10.7-4.5-16.5-4.4
					C116.6,97.4,110.8,98.9,105.7,101.9z"/>
			</defs>
			<clipPath id="SVGID_2_">
				<use xlink:href="#SVGID_1_"  style="overflow:visible;"/>
			</clipPath>
			<g class="st2">
				
					<linearGradient id="SVGID_3_" gradientUnits="userSpaceOnUse" x1="-11367.7441" y1="-1669.3811" x2="-11323.6924" y2="-1669.3811" gradientTransform="matrix(-0.91 -0.41 0.41 -0.91 -9557.2373 -6075.7339)">
					<stop  offset="0.19" style="stop-color:#FFFFFF;stop-opacity:0"/>
					<stop  offset="1" style="stop-color:#333333"/>
				</linearGradient>
				<path class="st3" d="M96.8,134.8c-5.8-2.8-9.7-0.3-14.1,0.7c-3.5,0.8-11.4-24.5-13.4-21.6l15.8-35.6l43.6-3l-23.8,66.3
					L96.8,134.8z"/>
				
					<linearGradient id="SVGID_4_" gradientUnits="userSpaceOnUse" x1="-10750.1641" y1="-2010.8103" x2="-10691.9619" y2="-2010.8103" gradientTransform="matrix(0.9115 -0.4112 -0.4112 -0.9115 9085.9072 -6074.8125)">
					<stop  offset="0.19" style="stop-color:#FFFFFF;stop-opacity:0"/>
					<stop  offset="1" style="stop-color:#333333"/>
				</linearGradient>
				<path class="st4" d="M145.5,182.9c5.8-2.8,8.3-8.9,12.7-7.9c3.4,0.7,6.3,2.7,8.2,5.6l-10.2-48.5l-46.2,39l26.4,24.3L145.5,182.9
					z"/>
			</g>
		</g>
		<path class="st1" d="M69.2,102.5h19.7v78.1H69.2V102.5z"/>
		<path class="st1" d="M122.6,80.5l82.1,0.1v17.8h-30.4v82.4h-18.8V98.3h-17.8L122.6,80.5z"/>
		<path class="st1" d="M89.2,88.1c0,5.5-4.1,10-10.4,10c-6.1,0-10.1-4.5-10-10C68.7,82.3,72.8,78,79,78C85.2,78,89.1,82.3,89.2,88.1
			z"/>
	</g>
</g>
</svg>
