<?xml version="1.0" encoding="utf-8"?>
<!-- Generator: Adobe Illustrator 22.0.1, SVG Export Plug-In . SVG Version: 6.00 Build 0)  -->
<svg version="1.1" id="Layer_1" xmlns="http://www.w3.org/2000/svg" xmlns:xlink="http://www.w3.org/1999/xlink" x="0px" y="0px"
	 viewBox="0 0 260 260" style="enable-background:new 0 0 260 260;" xml:space="preserve">
<style type="text/css">
	.st0{fill:#355A9E;}
	.st1{fill:#FFFFFF;}
	.st2{clip-path:url(#SVGID_2_);}
	.st3{fill:url(#SVGID_3_);}
</style>
<path class="st0" d="M130,260L130,260C58.2,260,0,201.8,0,130v0C0,58.2,58.2,0,130,0h0c71.8,0,130,58.2,130,130v0
	C260,201.8,201.8,260,130,260z"/>
<g id="Layer_2_1_">
	<g id="Layer_1-2">
		<path class="st1" d="M216.8,126.7c0-5.2-0.8-10.4-2.3-15.3c-1.1-3.5-2.6-6.9-4.5-10c-4.5-7.6-10.9-13.8-18.7-18
			c-7.3-4-15.5-6.2-23.8-6.4v0.1c-0.7,0-1.3-0.1-2-0.1l0,0c-33.2,0-44.3,27.6-45.3,29.7l0,0L102.8,141L70.5,78.2H49.2v97.3h17v-69.8
			l30.4,59.7h12l9-17.8c4.3,9.7,11.7,17.7,21.1,22.7c16.4,8.8,36.2,8.8,52.6,0C207.2,161.7,217,144.9,216.8,126.7L216.8,126.7
			L216.8,126.7z M136.3,110.9c0.2-0.4,0.4-0.8,0.7-1.2c2.8-4.8,6.8-8.8,11.7-11.5c5-2.9,10.7-4.4,16.5-4.4c5.7,0,11.3,1.5,16.3,4.4
			c4.9,2.9,9,7,11.8,12c2.9,5.1,4.4,10.8,4.4,16.6c0,4.4-0.8,8.8-2.4,12.9c-0.5,1.3-1.2,2.6-1.9,3.9c-2.8,5-6.9,9.2-11.9,12.1
			c-4.9,3-10.5,4.5-16.3,4.5c-5.8,0-11.5-1.5-16.5-4.5c-5-2.9-9.2-7.1-12.1-12.1c-0.3-0.6-0.6-1.2-1-1.8c-0.2-0.4-0.4-0.8-0.6-1.2
			c-0.4-0.8-0.7-1.6-1-2.4c-1.3-3.6-2-7.5-2-11.3c0.1-5,1.3-10,3.5-14.5L136.3,110.9z"/>
		<g>
			<defs>
				<path id="SVGID_1_" d="M216.8,126.7c0-5.2-0.8-10.4-2.3-15.3c-1.1-3.5-2.6-6.9-4.5-10c-4.5-7.6-10.9-13.8-18.7-18
					c-7.3-4-15.5-6.2-23.8-6.4v0.1c-0.7,0-1.3-0.1-2-0.1l0,0c-33.2,0-44.3,27.6-45.3,29.7l0,0L102.8,141L70.5,78.2H49.2v97.3h17
					v-69.8l30.4,59.7h12l9-17.8c4.3,9.7,11.7,17.7,21.1,22.7c16.4,8.8,36.2,8.8,52.6,0C207.2,161.7,217,144.9,216.8,126.7
					L216.8,126.7L216.8,126.7z M136.3,110.9c0.2-0.4,0.4-0.8,0.7-1.2c2.8-4.8,6.8-8.8,11.7-11.5c5-2.9,10.7-4.4,16.5-4.4
					c5.7,0,11.3,1.5,16.3,4.4c4.9,2.9,9,7,11.8,12c2.9,5.1,4.4,10.8,4.4,16.6c0,4.4-0.8,8.8-2.4,12.9c-0.5,1.3-1.2,2.6-1.9,3.9
					c-2.8,5-6.9,9.2-11.9,12.1c-4.9,3-10.5,4.5-16.3,4.5c-5.8,0-11.5-1.5-16.5-4.5c-5-2.9-9.2-7.1-12.1-12.1c-0.3-0.6-0.6-1.2-1-1.8
					c-0.2-0.4-0.4-0.8-0.6-1.2c-0.4-0.8-0.7-1.6-1-2.4c-1.3-3.6-2-7.5-2-11.3c0.1-5,1.3-10,3.5-14.5L136.3,110.9z"/>
			</defs>
			<clipPath id="SVGID_2_">
				<use xlink:href="#SVGID_1_"  style="overflow:visible;"/>
			</clipPath>
			<g class="st2">
				
					<linearGradient id="SVGID_3_" gradientUnits="userSpaceOnUse" x1="-1572.2684" y1="378.8757" x2="-1586.3" y2="365.7508" gradientTransform="matrix(0.58 0.81 0.81 -0.58 753.8877 1639.5955)">
					<stop  offset="0" style="stop-color:#FFFFFF;stop-opacity:0"/>
					<stop  offset="0.1" style="stop-color:#DEDEDE;stop-opacity:0.16"/>
					<stop  offset="0.43" style="stop-color:#808080;stop-opacity:0.62"/>
					<stop  offset="0.74" style="stop-color:#474747;stop-opacity:0.9"/>
					<stop  offset="1" style="stop-color:#333333"/>
				</linearGradient>
				<path class="st3" d="M125.7,169.7c5.3,2.4,10.8,1.4,14.2,6.2c3.5,4.8,14.3-10.3,14.8-4.5c0,0.6-7.3,1.9-7.2,2.4
					c5.7-0.4,20.2-1.7,24.8-2.1c0-0.3,0-0.6-0.1-0.9c-1.1-8.8,4.3-23.6-1.2-31.2l-7.6-6.5c-15.2-21.2-18.9-21-28.3-19.9l-17.9,35.2
					C121,153.7,120.9,167.5,125.7,169.7z"/>
			</g>
		</g>
	</g>
</g>
</svg>
