<?xml version="1.0" encoding="utf-8"?>
<!-- Generator: Adobe Illustrator 22.0.1, SVG Export Plug-In . SVG Version: 6.00 Build 0)  -->
<svg version="1.1" id="Layer_1" xmlns="http://www.w3.org/2000/svg" xmlns:xlink="http://www.w3.org/1999/xlink" x="0px" y="0px"
	 viewBox="0 0 260 260" style="enable-background:new 0 0 260 260;" xml:space="preserve">
<style type="text/css">
	.st0{fill:#DB353A;}
	.st1{fill:#FFFFFF;}
	.st2{clip-path:url(#SVGID_2_);}
	.st3{clip-path:url(#SVGID_4_);}
	.st4{clip-path:url(#SVGID_6_);}
	.st5{opacity:0.58;}
	.st6{fill:url(#SVGID_7_);}
</style>
<title>PA</title>
<path class="st0" d="M130,260L130,260C58.2,260,0,201.8,0,130v0C0,58.2,58.2,0,130,0h0c71.8,0,130,58.2,130,130v0
	C260,201.8,201.8,260,130,260z"/>
<g>
	<g>
		<rect x="119.8" y="129.7" class="st1" width="56.1" height="16.5"/>
		<polyline class="st1" points="178.5,155 187.2,175.8 207.4,175.8 165,77.7 145.6,77.7 119.9,136.1 138.6,136.1 154.7,97.7 
			171.8,138.9 		"/>
		<g>
			<defs>
				<path id="SVGID_1_" d="M114.9,118.3l13.3,14.1l-14.6,9.5c0,0-4.7,22.6,15.9,12.1c0.3-0.1,8.1,14.6,8.9,15.6s47.6,11.6,49.1,12.1
					s23.9,6.1,24,3s-9.2-65.7-9.2-65.7l-16.6-47.1c0,0-32.4-9.7-32.7-9.4s-34.6,15-34.5,16.2S114.9,118.3,114.9,118.3z"/>
			</defs>
			<clipPath id="SVGID_2_">
				<use xlink:href="#SVGID_1_"  style="overflow:visible;"/>
			</clipPath>
			<g class="st2">
				<path class="st0" d="M111,155.4H96.9l-3.9,31H74.2v-98h40.2c12.3,0,31.3,0.3,28.6,8.8c-19.2,62,5.4,16.5,6.8,22.8
					c2.4,10.9-3.4,19.9-10.1,26.1 M129.7,136.4c3.8-3.1,5.7-7.7,5.7-13.7c0-6.1-1.9-10.5-5.7-13.4c-3.8-3-9.2-4.5-16.3-4.5H93V141
					h20.4C120.5,141,126,139.4,129.7,136.4L129.7,136.4z"/>
			</g>
		</g>
		<path class="st1" d="M135.3,85.9c6.8,5.9,10.1,14.2,10.1,24.9c0,11.2-3.4,19.9-10.1,26.1s-16.3,9.3-28.6,9.3H85.3v28.9H66.5v-98
			h40.2C119,77.1,128.6,80,135.3,85.9z M123.2,125.1c3.8-3.1,5.7-7.7,5.7-13.7c0-6-1.9-10.5-5.7-13.4c-3.8-3-9.2-4.5-16.3-4.5H85.3
			v36.3h21.6C114,129.7,119.4,128.2,123.2,125.1z"/>
		<path class="st0" d="M123.2,125.1c3.8-3.1,5.7-7.7,5.7-13.7c0-6-1.9-10.5-5.7-13.4c-3.8-3-9.2-4.5-16.3-4.5H85.3v36.3h21.6
			C114,129.7,119.4,128.2,123.2,125.1z"/>
		<path class="st1" d="M140.1,90.3L140.1,90.3l-0.2,0.5l0.1,0.2l0.9,6.7c0,0,13.2,14.8,6.2-3c-3.6-9.1-6-4.5-6.1-4.5L140.1,90.3z"/>
		<g id="Layer_2_1_">
			<defs>
				<path id="SVGID_3_" d="M135.3,85.9c6.8,5.9,10.1,14.2,10.1,24.9c0,11.2-3.4,19.9-10.1,26.1s-16.3,9.3-28.6,9.3H85.3v28.9H66.5
					v-98h40.2C119,77.1,128.6,80,135.3,85.9z M123.2,125.1c3.8-3.1,5.7-7.7,5.7-13.7c0-6-1.9-10.5-5.7-13.4c-3.8-3-9.2-4.5-16.3-4.5
					H85.3v36.3h21.6C114,129.7,119.4,128.2,123.2,125.1z"/>
			</defs>
			<clipPath id="SVGID_4_">
				<use xlink:href="#SVGID_3_"  style="overflow:visible;"/>
			</clipPath>
			<g id="Layer_1-2" class="st3">
				<g>
					<defs>
						<polygon id="SVGID_5_" points="146.6,75.3 125.6,123.1 89.9,118.2 89.2,73.1 120.4,71.1 						"/>
					</defs>
					<clipPath id="SVGID_6_">
						<use xlink:href="#SVGID_5_"  style="overflow:visible;"/>
					</clipPath>
					<g class="st4">
						<g class="st5">
							
								<linearGradient id="SVGID_7_" gradientUnits="userSpaceOnUse" x1="101.778" y1="167.355" x2="135.268" y2="154.905" gradientTransform="matrix(1 0 0 -1 0 262.92)">
								<stop  offset="0.19" style="stop-color:#FFFFFF;stop-opacity:0"/>
								<stop  offset="1" style="stop-color:#333333"/>
							</linearGradient>
							<path class="st6" d="M136.4,120.6c-0.1-5.4,7-23.9,9.6-27c2-2.4-4.8-14.1-1.5-14.6l-58.5-5.5l-1.6,48l13.4-6.5L136.4,120.6z"
								/>
						</g>
					</g>
				</g>
			</g>
		</g>
	</g>
</g>
</svg>
