<?xml version="1.0" encoding="utf-8"?>
<!-- Generator: Adobe Illustrator 22.0.1, SVG Export Plug-In . SVG Version: 6.00 Build 0)  -->
<svg version="1.1" id="Layer_1" xmlns="http://www.w3.org/2000/svg" xmlns:xlink="http://www.w3.org/1999/xlink" x="0px" y="0px"
	 viewBox="0 0 260 260" style="enable-background:new 0 0 260 260;" xml:space="preserve">
<style type="text/css">
	.st0{fill:#F16A23;}
	.st1{fill:#FFFFFF;}
	.st2{clip-path:url(#SVGID_2_);}
	.st3{opacity:0.58;}
	.st4{fill:url(#SVGID_3_);}
</style>
<path class="st0" d="M130,260L130,260C58.2,260,0,201.8,0,130v0C0,58.2,58.2,0,130,0h0c71.8,0,130,58.2,130,130v0
	C260,201.8,201.8,260,130,260z"/>
<g id="Layer_2_1_">
	<g id="Layer_1-2">
		<path class="st1" d="M173.7,85c7.8,4.1,14.4,10.4,18.8,18c4.6,8,7,17,6.8,26.2c0.2,9.2-2.2,18.2-6.9,26.2
			c-4.6,7.6-11.2,13.9-19.1,18c-8.5,4.4-18.1,6.7-27.7,6.5h-41.5V78.6h42.2C155.9,78.4,165.3,80.6,173.7,85z M163.6,158.6
			c4.9-2.8,9-6.9,11.7-11.9c5.7-10.9,5.6-23.9-0.1-34.8c-2.8-5-7-9.2-12-12c-5.2-2.9-11.1-4.3-17-4.3h-22.4v67.2h23.2
			C152.8,163,158.5,161.5,163.6,158.6L163.6,158.6z"/>
		<path class="st0" d="M126.1,128.3c3.9-3.2,5.9-7.9,5.9-14.2c0-6.2-2-10.8-5.9-13.9c-3.9-3.1-9.5-4.6-16.9-4.6H88.1v37.5h21.2
			C116.6,133.1,122.2,131.5,126.1,128.3z"/>
		<path class="st0" d="M145.5,125.9c0,0.3,0,0.6,0,0.9c0,6.3-2,11-5.9,14.2c-3.9,3.2-9.5,4.8-16.9,4.8h-18.7v17.1h19.7
			c12.8,0,22.6-3.2,29.6-9.6s10.5-15.4,10.5-27c0-0.1,0-0.2,0-0.3L145.5,125.9z"/>
		<rect x="88.1" y="125" class="st0" width="16.3" height="56.4"/>
		<g>
			<defs>
				<path id="SVGID_1_" d="M173.7,85c7.8,4.1,14.4,10.4,18.8,18c4.6,8,7,17,6.8,26.2c0.2,9.2-2.2,18.2-6.9,26.2
					c-4.6,7.6-11.2,13.9-19.1,18c-8.5,4.4-18.1,6.7-27.7,6.5h-41.5V78.6h42.2C155.9,78.4,165.3,80.6,173.7,85z M163.6,158.6
					c4.9-2.8,9-6.9,11.7-11.9c5.7-10.9,5.6-23.9-0.1-34.8c-2.8-5-7-9.2-12-12c-5.2-2.9-11.1-4.3-17-4.3h-22.4v67.2h23.2
					C152.8,163,158.5,161.5,163.6,158.6L163.6,158.6z"/>
			</defs>
			<clipPath id="SVGID_2_">
				<use xlink:href="#SVGID_1_"  style="overflow:visible;"/>
			</clipPath>
			<g class="st2">
				<g class="st3">
					
						<linearGradient id="SVGID_3_" gradientUnits="userSpaceOnUse" x1="-8753.4932" y1="1379.5131" x2="-8724.8428" y2="1396.9531" gradientTransform="matrix(-1 8.000000e-02 8.000000e-02 1 -8689.6064 -600.4496)">
						<stop  offset="0.19" style="stop-color:#FFFFFF;stop-opacity:0"/>
						<stop  offset="1" style="stop-color:#333333"/>
					</linearGradient>
					<path class="st4" d="M111.2,77.3c0.4,3.6,31,13,29.5,15.2c-1.2,1.7,6.5,7.1,4.3,7.7l32.7,23.3l18.7-31.7l-42-16.8L111.2,77.3z"
						/>
				</g>
			</g>
		</g>
		<path class="st1" d="M139.9,87.7c7,6.1,10.5,14.7,10.5,25.8c0,11.6-3.5,20.6-10.5,27s-16.9,9.6-29.6,9.7H88.1V180H68.6V78.6h41.6
			C123,78.6,132.9,81.6,139.9,87.7z M126.1,128.3c3.9-3.2,5.9-7.9,5.9-14.2c0-6.2-2-10.8-5.9-13.9c-3.9-3.1-9.5-4.6-16.9-4.6H88.1
			v37.5h21.2C116.6,133.1,122.2,131.5,126.1,128.3L126.1,128.3z"/>
	</g>
</g>
</svg>
