<?xml version="1.0" encoding="utf-8"?>
<!-- Generator: Adobe Illustrator 22.0.1, SVG Export Plug-In . SVG Version: 6.00 Build 0)  -->
<svg version="1.1" id="Layer_1" xmlns="http://www.w3.org/2000/svg" xmlns:xlink="http://www.w3.org/1999/xlink" x="0px" y="0px"
	 viewBox="0 0 260 260" style="enable-background:new 0 0 260 260;" xml:space="preserve">
<style type="text/css">
	.st0{fill:#EBBA34;}
	.st1{clip-path:url(#SVGID_2_);}
	.st2{fill:#FFFFFF;}
	.st3{clip-path:url(#SVGID_4_);}
	.st4{fill:url(#SVGID_5_);}
</style>
<path class="st0" d="M130,260L130,260C58.2,260,0,201.8,0,130v0C0,58.2,58.2,0,130,0h0c71.8,0,130,58.2,130,130v0
	C260,201.8,201.8,260,130,260z"/>
<g>
	<g>
		<g id="Layer_2_1_">
			<defs>
				<path id="SVGID_1_" d="M139.3,197.2l17.1-9.1l71-3l-11-118.4h-96.7H53c0,0-36.1,50.8-36.1,52.4s5.8,52,11.2,55.4
					s42.9,13.5,44.1,14.1s19.7,13.3,20.3,13.7s42.3,2.7,42.3,2.7l9.9-5L139.3,197.2z"/>
			</defs>
			<clipPath id="SVGID_2_">
				<use xlink:href="#SVGID_1_"  style="overflow:visible;"/>
			</clipPath>
			<g id="Layer_1-2" class="st1">
				<path class="st2" d="M146.3,176.9c-3.4,3.1-7.3,5.5-11.6,7.1c-4.1,1.7-8.5,2.5-12.9,2.6c-5.5,0-11-1.7-15.5-4.9
					c-5.1-3.6-9.3-8.2-12.2-13.7c-8.3,0.1-16.6-2-23.9-6.1c-7-3.9-12.8-9.6-16.9-16.5c-12.7-21.2-5.8-48.7,15.4-61.3
					c0.5-0.3,1.1-0.6,1.6-0.9c15-7.9,32.9-7.9,47.8,0c14.4,7.8,23.3,22.9,23.2,39.2c0,6.4-1.3,12.7-3.8,18.5
					c-2.5,5.7-6.2,10.8-10.8,14.9c-4.6,4.2-10.1,7.4-16,9.5c4.5,4.7,8.9,7.1,13.2,7.1c4.6,0,9.9-2.4,15.9-7.1L146.3,176.9z
					 M68.5,137.8c2.7,4.6,6.4,8.3,11,11c4.5,2.7,9.7,4.1,15,4c5.2,0,10.3-1.3,14.8-4c4.5-2.7,8.2-6.4,10.8-11c2.7-4.6,4-9.9,4-15.3
					c0-5.3-1.3-10.6-4-15.2c-2.6-4.5-6.3-8.3-10.8-10.9c-4.5-2.6-9.6-4-14.8-4c-16.6,0-30.1,13.6-30,30.2
					C64.4,128,65.8,133.2,68.5,137.8L68.5,137.8z"/>
				<g>
					<defs>
						<path id="SVGID_3_" d="M146.3,176.9c-3.4,3.1-7.3,5.5-11.6,7.1c-4.1,1.7-8.5,2.5-12.9,2.6c-5.5,0-11-1.7-15.5-4.9
							c-5.1-3.6-9.3-8.2-12.2-13.7c-8.3,0.1-16.6-2-23.9-6.1c-7-3.9-12.8-9.6-16.9-16.5c-12.7-21.2-5.8-48.7,15.4-61.3
							c0.5-0.3,1.1-0.6,1.6-0.9c15-7.9,32.9-7.9,47.8,0c14.4,7.8,23.3,22.9,23.2,39.2c0,6.4-1.3,12.7-3.8,18.5
							c-2.5,5.7-6.2,10.8-10.8,14.9c-4.6,4.2-10.1,7.4-16,9.5c4.5,4.7,8.9,7.1,13.2,7.1c4.6,0,9.9-2.4,15.9-7.1L146.3,176.9z
							 M68.5,137.8c2.7,4.6,6.4,8.3,11,11c4.5,2.7,9.7,4.1,15,4c5.2,0,10.3-1.3,14.8-4c4.5-2.7,8.2-6.4,10.8-11
							c2.7-4.6,4-9.9,4-15.3c0-5.3-1.3-10.6-4-15.2c-2.6-4.5-6.3-8.3-10.8-10.9c-4.5-2.6-9.6-4-14.8-4c-16.6,0-30.1,13.6-30,30.2
							C64.4,128,65.8,133.2,68.5,137.8L68.5,137.8z"/>
					</defs>
					<clipPath id="SVGID_4_">
						<use xlink:href="#SVGID_3_"  style="overflow:visible;"/>
					</clipPath>
					<g class="st3">
						
							<linearGradient id="SVGID_5_" gradientUnits="userSpaceOnUse" x1="104.2175" y1="107.5227" x2="132.4075" y2="131.3327" gradientTransform="matrix(1 0 0 -1 0 261.87)">
							<stop  offset="0.19" style="stop-color:#FFFFFF;stop-opacity:0"/>
							<stop  offset="1" style="stop-color:#333333"/>
						</linearGradient>
						<path class="st4" d="M123,163.3c3.7-3.8,7-11.6,9.9-13c2.6-1.3-6.5-11.4-4.1-9.8l-4.7-18l-31.7,17l3,27.9L123,163.3z"/>
					</g>
				</g>
				<path class="st2" d="M201.7,89.3c7.2,8.2,10.8,19.6,10.8,34.3c0,2.9-0.1,5.1-0.2,6.5h-66.1c1.2,5.9,4.4,11.2,9,15
					c4.5,3.6,10.1,5.4,16.7,5.4c4.5,0,9-0.9,13.1-2.6c4.1-1.7,7.9-4.2,11-7.4l11.7,12.2c-4.5,5-10.1,8.8-16.4,11.4
					c-6.8,2.7-14,4.1-21.4,4c-9.2,0-17.2-1.9-24.2-5.7c-6.8-3.6-12.4-9.2-16.2-16c-3.9-7.3-5.9-15.4-5.7-23.7
					c-0.2-8.3,1.8-16.5,5.8-23.8c3.7-6.8,9.3-12.4,16.1-16.1c7.2-3.9,15.4-5.9,23.6-5.8C183.8,77.1,194.5,81.2,201.7,89.3z
					 M192.6,115.6c-0.2-6.6-2.4-11.8-6.5-15.7s-9.6-5.9-16.4-5.9c-5.9-0.2-11.6,1.9-16,5.8c-4.3,3.8-6.9,9.1-7.9,15.8H192.6z"/>
			</g>
		</g>
	</g>
</g>
</svg>
