<?xml version="1.0" encoding="utf-8"?>
<!-- Generator: Adobe Illustrator 22.0.1, SVG Export Plug-In . SVG Version: 6.00 Build 0)  -->
<svg version="1.1" id="Layer_1" xmlns="http://www.w3.org/2000/svg" xmlns:xlink="http://www.w3.org/1999/xlink" x="0px" y="0px"
	 viewBox="0 0 260 260" style="enable-background:new 0 0 260 260;" xml:space="preserve">
<style type="text/css">
	.st0{fill:#96458F;}
	.st1{clip-path:url(#SVGID_2_);}
	.st2{fill:#FFFFFF;}
	.st3{clip-path:url(#SVGID_4_);}
	.st4{fill:url(#SVGID_5_);}
	.st5{clip-path:url(#SVGID_7_);}
	.st6{clip-path:url(#SVGID_9_);}
	.st7{fill:url(#SVGID_10_);}
	.st8{clip-path:url(#SVGID_9_);fill:#FFFFFF;}
</style>
<path class="st0" d="M130,260L130,260C58.2,260,0,201.8,0,130v0C0,58.2,58.2,0,130,0h0c71.8,0,130,58.2,130,130v0
	C260,201.8,201.8,260,130,260z"/>
<g>
	<g>
		<g>
			<defs>
				<rect id="SVGID_1_" x="55.7" y="63" width="148.7" height="134"/>
			</defs>
			<clipPath id="SVGID_2_">
				<use xlink:href="#SVGID_1_"  style="overflow:visible;"/>
			</clipPath>
			<g class="st1">
				<path class="st2" d="M178.4,97.8c-9.7-4.7-21.2-4.4-30.6,1c-4.9,2.8-9,6.9-11.7,11.8c-5.7,10.3-5.7,22.7,0,33
					c2.8,4.9,6.8,9,11.7,11.8c5,2.9,10.7,4.4,16.4,4.3c4.8,0,9.5-1.1,13.9-3c4.6-2,8.8-4.9,12.4-8.4l10.9,12.2
					c-5.1,5.2-11.1,9.3-17.7,12.2c-6.4,2.9-13.4,4.5-20.5,4.5c-9,0.1-17.8-2.2-25.6-6.6c-7.5-4.3-13.8-10.5-18.2-18
					c-4.4-7.6-6.8-16.4-6.7-25.2c-0.1-8.8,2.2-17.5,6.8-25.1c4.4-7.5,10.8-13.6,18.4-17.8c14.3-7.7,31.2-8.6,46.2-2.3
					c6.4,2.6,12.2,6.5,17,11.5l-10.8,13.5C187.2,103.2,183.1,100,178.4,97.8z"/>
				<g>
					<defs>
						<path id="SVGID_3_" d="M178.4,97.8c-9.7-4.7-21.2-4.4-30.6,1c-4.9,2.8-9,6.9-11.7,11.8c-5.7,10.3-5.7,22.7,0,33
							c2.8,4.9,6.8,9,11.7,11.8c5,2.9,10.7,4.4,16.4,4.3c4.8,0,9.5-1.1,13.9-3c4.6-2,8.8-4.9,12.4-8.4l10.9,12.2
							c-5.1,5.2-11.1,9.3-17.7,12.2c-6.4,2.9-13.4,4.5-20.5,4.5c-9,0.1-17.8-2.2-25.6-6.6c-7.5-4.3-13.8-10.5-18.2-18
							c-4.4-7.6-6.8-16.4-6.7-25.2c-0.1-8.8,2.2-17.5,6.8-25.1c4.4-7.5,10.8-13.6,18.4-17.8c14.3-7.7,31.2-8.6,46.2-2.3
							c6.4,2.6,12.2,6.5,17,11.5l-10.8,13.5C187.2,103.2,183.1,100,178.4,97.8z"/>
					</defs>
					<clipPath id="SVGID_4_">
						<use xlink:href="#SVGID_3_"  style="overflow:visible;"/>
					</clipPath>
					<g class="st3">
						
							<linearGradient id="SVGID_5_" gradientUnits="userSpaceOnUse" x1="-7357.7402" y1="-4817.9326" x2="-7310.7739" y2="-4817.9326" gradientTransform="matrix(-0.4175 0.9087 0.9087 0.4175 1443.3564 8786.6943)">
							<stop  offset="0.19" style="stop-color:#FFFFFF;stop-opacity:0"/>
							<stop  offset="1" style="stop-color:#333333"/>
						</linearGradient>
						<path class="st4" d="M116.5,106.3c-2.3,5.2-2.4,10.3-4.8,12.9c-2.2,2.3-5.7,1.9-8.8,1.1l32.8,20.3l10.5-46.9l-31.9-0.9
							L116.5,106.3z"/>
					</g>
				</g>
				<path class="st2" d="M190.6,148.1c-5.6,6.9-15.1,11.5-25.8,11.5c-1.6,0-3.2-0.1-4.7-0.3l-0.7-0.1l-0.9-0.1
					c-3.8-0.5-7.4-1.8-10.7-3.7c-0.1,0-0.1-0.1-0.2-0.1c-5.5-2.9-9.8-7.6-12.2-13.4l0,0c-3.6-8.7-11.2-15.8-20.8-19.4l0,0h-0.1
					l-0.8-0.3c-2.8-1-5.8-2-9.2-3c-3.8-1.1-7.5-2.3-11.1-3.8c-2.5-1-4.8-2.5-6.8-4.4c-1.8-1.8-2.8-4.2-2.7-6.7
					c-0.1-2.8,1.4-5.5,3.9-6.9c2.6-1.7,6.1-2.5,10.5-2.5c4.7,0.1,9.3,1,13.7,2.5c0.4,0.1,0.9,0.3,1.3,0.5c3.4-5.5,7.8-10.3,13-14.1
					c-2.6-1.1-5.3-2.1-8-2.9c-6-1.8-12.3-2.8-18.6-2.8c-6.5-0.1-13,1-19,3.5c-5.1,2-9.5,5.3-12.7,9.7c-3,4.3-4.6,9.5-4.5,14.7
					c0,6.1,1.5,11,4.4,14.7c2.8,3.6,6.5,6.5,10.6,8.4c5.2,2.2,10.6,4.1,16,5.7c4.8,1.4,8.6,2.6,11.3,3.7c2.5,1,4.9,2.4,6.8,4.3
					c3.7,3.9,3.6,10.1-0.3,13.8c-0.4,0.4-0.9,0.8-1.4,1.1c-2.9,2-7,3-12.2,3c-5.9-0.1-11.6-1.4-17-3.9c-6.1-2.6-11.6-6.2-16.4-10.6
					l-7.7,15.8c5.6,4.8,11.9,8.6,18.8,11.3c7,2.8,14.5,4.2,22.1,4.2c6.5,0.1,13-1.1,19.1-3.5c4.8-1.9,9.1-5,12.3-9.1
					c9.3,7.9,21.2,12.2,33.4,12.1c7.1,0,14-1.6,20.5-4.5c6.6-2.9,12.6-7.1,17.6-12.2L190.6,148.1z"/>
				<g id="Layer_2_1_">
					<defs>
						<polygon id="SVGID_6_" points="134.2,186.8 66.9,184.9 66.9,143.9 134.1,143.9 						"/>
					</defs>
					<clipPath id="SVGID_7_">
						<use xlink:href="#SVGID_6_"  style="overflow:visible;"/>
					</clipPath>
					<g id="Layer_1-2" class="st5">
						<path class="st2" d="M126.5,147.2v-18.5c-1.9-1.5-3.9-2.8-6.1-3.8c-5.2-2.3-10.6-4.2-16.1-5.8c-3.8-1.1-7.5-2.3-11.1-3.8
							c-2.5-1-4.8-2.5-6.8-4.4c-1.8-1.8-2.8-4.2-2.7-6.7c-0.1-2.8,1.4-5.5,3.9-6.9c2.6-1.7,6.1-2.5,10.5-2.5
							c4.7,0.1,9.4,0.9,13.8,2.5c0.4,0.1,0.9,0.3,1.3,0.5c3.4-5.5,7.8-10.3,13-14.1c-2.6-1.1-5.3-2.1-8-2.9
							c-6-1.8-12.3-2.8-18.6-2.8c-6.5-0.1-13,1.1-19,3.5c-5.1,2-9.5,5.3-12.7,9.7c-3,4.3-4.6,9.5-4.5,14.8c0,6.1,1.5,11,4.4,14.7
							c2.8,3.6,6.5,6.5,10.6,8.4c5.2,2.2,10.6,4.1,16,5.7c4.8,1.4,8.6,2.6,11.3,3.7c2.5,1,4.9,2.4,6.8,4.3
							c3.7,3.9,3.6,10.1-0.4,13.8c-0.4,0.4-0.9,0.8-1.4,1.1c-2.9,2-7,3-12.1,3c-5.9-0.1-11.6-1.5-17-3.9
							c-6.1-2.6-11.6-6.2-16.4-10.6l-7.7,15.8c5.5,4.8,11.9,8.6,18.8,11.3c7,2.8,14.5,4.2,22.1,4.2c6.5,0.1,13-1.1,19.1-3.5
							c5.2-2,9.8-5.5,13.1-10c3.2-4.5,4.9-9.9,4.8-15.4c0-0.4-0.1-0.8-0.1-1.2L126.5,147.2z"/>
						<g>
							<defs>
								<path id="SVGID_8_" d="M120.4,124.9c-5.2-2.3-10.6-4.2-16.1-5.8c-3.8-1.1-7.5-2.3-11.1-3.8c-2.5-1-4.8-2.5-6.8-4.4
									c-1.8-1.8-2.8-4.2-2.7-6.7c-0.1-2.8,1.4-5.5,3.9-6.9c2.6-1.7,6.1-2.5,10.5-2.5c4.7,0.1,9.4,0.9,13.8,2.5
									c0.4,0.1,0.9,0.3,1.3,0.5c3.4-5.5,7.8-10.3,13-14.1c-2.6-1.1-5.3-2.1-8-2.9c-6-1.8-12.3-2.8-18.6-2.8
									c-6.5-0.1-13,1.1-19,3.5c-5.1,2-9.5,5.3-12.7,9.7c-3,4.3-4.6,9.5-4.5,14.8c0,6.1,1.5,11,4.4,14.7c2.8,3.6,6.5,6.5,10.6,8.4
									c5.2,2.2,10.6,4.1,16,5.7c4.8,1.4,8.6,2.6,11.3,3.7c2.5,1,4.9,2.4,6.8,4.3c3.7,3.9,3.5,10.1-0.4,13.8
									c-0.4,0.4-0.9,0.8-1.4,1.1c-2.9,2-7,3-12.2,3c-5.9-0.1-11.6-1.5-17-3.9c-6.1-2.6-11.6-6.2-16.4-10.6l-7.7,15.8
									c5.5,4.8,11.9,8.6,18.8,11.3c7,2.8,14.5,4.2,22.1,4.2c6.5,0.1,13-1.1,19.1-3.5c5.2-2,9.8-5.5,13.1-10
									c3.2-4.5,4.9-9.9,4.8-15.4c0-6.2-1.5-11.1-4.4-14.9C128.3,129.8,124.7,126.9,120.4,124.9z"/>
							</defs>
							<clipPath id="SVGID_9_">
								<use xlink:href="#SVGID_8_"  style="overflow:visible;"/>
							</clipPath>
							<g class="st6">
								
									<linearGradient id="SVGID_10_" gradientUnits="userSpaceOnUse" x1="97.3413" y1="90.1338" x2="124.3932" y2="112.9875" gradientTransform="matrix(1 0 0 -1 0 262.48)">
									<stop  offset="0.19" style="stop-color:#FFFFFF;stop-opacity:0"/>
									<stop  offset="1" style="stop-color:#333333"/>
								</linearGradient>
								<path class="st7" d="M118.9,180.8c4-4.1,8.5-11.6,11.6-13.1c2.9-1.4-6.7-15.8-4.1-14l-12.9-8.5l-27.6,10l3.2,30.1
									L118.9,180.8z"/>
							</g>
							<path class="st8" d="M178.4,97.4c-4.4-2.2-9.2-3.3-14.2-3.3c-5.8-0.1-11.4,1.4-16.4,4.3c-4.9,2.8-9,6.9-11.7,11.8
								c-5.7,10.3-5.7,22.8,0,33c2.8,4.9,6.8,9,11.7,11.8c5,2.9,10.7,4.4,16.4,4.3c4.8,0,9.5-1.1,13.9-3c4.6-2,8.8-4.9,12.4-8.4
								l10.9,12.2c-5.1,5.2-11.1,9.3-17.7,12.2c-14.8,6.7-31.9,5.9-46-2.2c-8.4-4.8-16.9-11.4-21.6-21.4c-3.7-8-3.2-12.6-3.2-21.8
								c-0.1-8.8,2.2-17.5,6.7-25.1c4.4-7.5,10.8-13.6,18.4-17.8c14.2-7.7,31.2-8.6,46.2-2.3c6.4,2.6,12.2,6.5,17,11.5l-10.8,13.5
								C187.1,102.7,183,99.6,178.4,97.4z"/>
						</g>
					</g>
				</g>
			</g>
		</g>
	</g>
</g>
</svg>
