<?xml version="1.0" encoding="utf-8"?>
<!-- Generator: Adobe Illustrator 22.0.1, SVG Export Plug-In . SVG Version: 6.00 Build 0)  -->
<svg version="1.1" id="Layer_1" xmlns="http://www.w3.org/2000/svg" xmlns:xlink="http://www.w3.org/1999/xlink" x="0px" y="0px"
	 viewBox="0 0 260 260" style="enable-background:new 0 0 260 260;" xml:space="preserve">
<style type="text/css">
	.st0{fill:#5C96BE;}
	.st1{fill:#FFFFFF;}
	.st2{fill:url(#SVGID_1_);}
</style>
<path class="st0" d="M130,260L130,260C58.2,260,0,201.8,0,130v0C0,58.2,58.2,0,130,0h0c71.8,0,130,58.2,130,130v0
	C260,201.8,201.8,260,130,260z"/>
<g id="Layer_2_1_">
	<g id="Layer_1-2">
		<path class="st1" d="M172.7,78.6c2.3,2.5,3.5,5.7,3.4,9.1c0.1,3.3-1.1,6.5-3.4,8.9c-4.7,4.7-12.4,4.8-17.2,0c0,0,0,0,0,0
			c-2.3-2.4-3.5-5.6-3.4-8.9c-0.1-3.4,1.1-6.6,3.4-9.1C160.3,73.8,167.9,73.8,172.7,78.6C172.7,78.6,172.7,78.6,172.7,78.6z"/>
		<rect x="153.1" y="104.4" class="st1" width="21.8" height="78.9"/>
		
			<linearGradient id="SVGID_1_" gradientUnits="userSpaceOnUse" x1="187.2802" y1="97.7604" x2="172.6651" y2="110.4838" gradientTransform="matrix(1 0 0 -1 0 261.87)">
			<stop  offset="0.19" style="stop-color:#FFFFFF;stop-opacity:0"/>
			<stop  offset="1" style="stop-color:#333333"/>
		</linearGradient>
		<rect x="153.1" y="104.4" class="st2" width="21.8" height="78.9"/>
		<path class="st1" d="M105.2,157.7c5.1,5.1,11.9,7.6,20.4,7.6c8.5,0,15.3-2.5,20.2-7.6c4.9-5.1,7.4-12.1,7.4-21.1v-32.4H175v32.5
			c0,9.8-2,18.4-6,25.7c-3.9,7.2-9.8,13-17.1,16.8c-7.4,3.9-16.1,5.8-26.2,5.8c-10.2,0-19-1.9-26.5-5.8c-7.3-3.7-13.4-9.6-17.3-16.8
			c-4-7.3-6-15.8-6-25.7V78.9h21.7v57.7C97.6,145.6,100.2,152.7,105.2,157.7z"/>
	</g>
</g>
</svg>
