<?xml version="1.0" encoding="utf-8"?>
<!-- Generator: Adobe Illustrator 22.0.1, SVG Export Plug-In . SVG Version: 6.00 Build 0)  -->
<svg version="1.1" id="Layer_1" xmlns="http://www.w3.org/2000/svg" xmlns:xlink="http://www.w3.org/1999/xlink" x="0px" y="0px"
	 viewBox="0 0 260 260" style="enable-background:new 0 0 260 260;" xml:space="preserve">
<style type="text/css">
	.st0{fill:#D63361;}
	.st1{fill:#FFFFFF;}
	.st2{clip-path:url(#SVGID_2_);}
	.st3{fill:url(#SVGID_3_);}
</style>
<path class="st0" d="M130,260L130,260C58.2,260,0,201.8,0,130v0C0,58.2,58.2,0,130,0h0c71.8,0,130,58.2,130,130v0
	C260,201.8,201.8,260,130,260z"/>
<g id="Layer_2_1_">
	<g id="Layer_1-2">
		<path class="st1" d="M164,127.8l36.3-50h-24.7l-13.3,19.6c-5.8,8.7-9.9,15-10.2,15H152c-0.1,0-4.4-6.2-10.8-14.9l-14-19.7h-24.9
			l36.7,49.8l-20,27.4l0,0c-0.2,0.3-0.5,0.7-0.7,1l0,0c-3.8,4.9-9.6,7.2-17.4,7.2c-15.1,0-22.6-8.6-22.6-27.5V79.5H58v56.9
			c0,29.7,16.3,45.8,42.8,45.8c16.2,0,27.7-6.2,35.8-17.8l2.7-3.8c7.2-10,11.4-15.9,11.5-15.9h0.1c0.1,0,4.1,5.9,10.9,15.8
			l14.6,20.6H202L164,127.8z"/>
		<g>
			<defs>
				<path id="SVGID_1_" d="M164,127.8l36.3-50h-24.7l-13.3,19.6c-5.8,8.7-9.9,15-10.2,15H152c-0.1,0-4.4-6.2-10.8-14.9l-14-19.7
					h-24.9l36.7,49.8l-20,27.4l0,0c-0.2,0.3-0.5,0.7-0.7,1l0,0c-3.8,4.9-9.6,7.2-17.4,7.2c-15.1,0-22.6-8.6-22.6-27.5V79.5H58v56.9
					c0,29.7,16.3,45.8,42.8,45.8c16.2,0,27.7-6.2,35.8-17.8l2.7-3.8c7.2-10,11.4-15.9,11.5-15.9h0.1c0.1,0,4.1,5.9,10.9,15.8
					l14.6,20.6H202L164,127.8z"/>
			</defs>
			<clipPath id="SVGID_2_">
				<use xlink:href="#SVGID_1_"  style="overflow:visible;"/>
			</clipPath>
			<g class="st2">
				
					<linearGradient id="SVGID_3_" gradientUnits="userSpaceOnUse" x1="-6576.0996" y1="-10726.8789" x2="-6533.5435" y2="-10726.8789" gradientTransform="matrix(0.8021 -0.5972 -0.5972 -0.8021 -1016.8784 -12366.293)">
					<stop  offset="0.19" style="stop-color:#FFFFFF;stop-opacity:0"/>
					<stop  offset="1" style="stop-color:#333333"/>
				</linearGradient>
				<path class="st3" d="M139.4,164.7c4.5-3.5,1.3-4.5,5.4-4.5c3.2,0,9.5-9.6,11.8-7.4l-17.8-25.4l-33.1,26.8l27.8,16.1L139.4,164.7
					z"/>
			</g>
		</g>
	</g>
</g>
</svg>
