<svg xmlns="http://www.w3.org/2000/svg" width="40" height="40" viewBox="0 0 40 40">
    <defs>
        <linearGradient id="a" x1=".029%" y1="50.037%" y2="50.037%">
            <stop offset="0%" stop-color="#FFF" stop-opacity="0"/>
            <stop offset="100%" stop-color="#333"/>
        </linearGradient>
    </defs>
    <g fill="none" fill-rule="nonzero">
        <path fill="#FFF" d="M19.815 19.589a3.774 3.774 0 0 0 1.752-.922v-4.805h.47a3.791 3.791 0 0 0-.876-.88c-1.004-.732-2.378-1.098-4.121-1.098H9.777v16.351h7.478c1.868 0 3.342-.4 4.423-1.203 1.082-.802 1.623-1.903 1.624-3.303 0-1.089-.307-2-.922-2.731a3.818 3.818 0 0 0-.927-.8 4.789 4.789 0 0 0-1.638-.609zm-6.91-5h3.969c.81-.015 1.443.148 1.902.49.457.338.715.88.69 1.448.026.58-.231 1.137-.69 1.493-.46.358-1.094.537-1.902.537h-3.969v-3.969zm6.303 10.365c-.56.389-1.339.575-2.334.56h-3.969V21.2h3.969c.996-.016 1.774.167 2.334.549.536.34.855.934.84 1.569a1.882 1.882 0 0 1-.84 1.64v-.004z"/>
        <path fill="#FFF" d="M31.448 15.859a8.138 8.138 0 0 1 1.098 4.215 8.025 8.025 0 0 1-1.11 4.204 7.776 7.776 0 0 1-3.069 2.898 9.318 9.318 0 0 1-4.46 1.048h-7.166l4.131-4.56L20 14.23l-3.259-2.354h7.284a9.194 9.194 0 0 1 4.39 1.083 7.628 7.628 0 0 1 3.033 2.9zm-4.374 8.99a4.817 4.817 0 0 0 1.674-1.969 6.682 6.682 0 0 0-.02-5.589 4.716 4.716 0 0 0-1.713-1.933 4.48 4.48 0 0 0-2.44-.687h-3.834v10.865h3.935a4.337 4.337 0 0 0 2.398-.687z"/>
        <path fill="#FFF" d="M19.47 11.885h2.334v9.096H19.47z"/>
        <path fill="url(#a)" d="M16.874 14.588c.81-.014 1.443.15 1.902.491.353.256.589.643.656 1.073v-4.267H14.1v2.703h2.775z"/>
    </g>
</svg>
