<svg xmlns="http://www.w3.org/2000/svg" xmlns:xlink="http://www.w3.org/1999/xlink" width="40" height="40" viewBox="0 0 40 40">
    <defs>
        <path id="a" d="M29.912 13.3l3.053.009-5.89 14.72h-3.083l-2.496-6.306h-10.5c.254 1.106.773 1.975 1.558 2.605a5.594 5.594 0 0 0 3.622 1.245c.784.003 1.56-.15 2.284-.45.36-.148.704-.334 1.027-.553v.008l1.12 2.52c-.337.199-.686.375-1.046.526a9.567 9.567 0 0 1-3.71.697c-1.592 0-2.994-.33-4.207-.989a6.917 6.917 0 0 1-2.808-2.78c-.66-1.192-.989-2.565-.989-4.117a8.357 8.357 0 0 1 1.003-4.133 7.104 7.104 0 0 1 2.804-2.808 8.3 8.3 0 0 1 4.11-1.001h.129c2.423.024 4.248.735 5.474 2.132a6.802 6.802 0 0 1 1.27 2.153l2.965 7.946 4.31-11.423zm-9.44 5.883c-.472-1.131-.93-2.233-1.612-2.799-1.103-.916-2.362-.954-3.388-.954-1.417 0-2.204.334-3.075 1.003-.871.67-1.353 1.586-1.556 2.75h9.631z"/>
        <linearGradient id="b" x1="-1.513%" x2="98.339%" y1="49.819%" y2="49.535%">
            <stop offset="19%" stop-color="#FFF" stop-opacity="0"/>
            <stop offset="100%" stop-color="#333"/>
        </linearGradient>
    </defs>
    <g fill="none" fill-rule="evenodd">
        <mask id="c" fill="#fff">
            <use xlink:href="#a"/>
        </mask>
        <use fill="#FFF" fill-rule="nonzero" xlink:href="#a"/>
        <path fill="url(#b)" fill-rule="nonzero" d="M19.93 21.943c.719-.015 1.142-.237 1.55.065.315.24-.069-.458 0-.065l-1.11-3.061h-3.304l1.592 3.691 1.273-.63z" mask="url(#c)"/>
    </g>
</svg>
